<?xml version="1.0" encoding="UTF-8" standalone="no"?>
<!-- Created with Inkscape (http://www.inkscape.org/) -->

<svg
   xmlns:dc="http://purl.org/dc/elements/1.1/"
   xmlns:cc="http://creativecommons.org/ns#"
   xmlns:rdf="http://www.w3.org/1999/02/22-rdf-syntax-ns#"
   xmlns:svg="http://www.w3.org/2000/svg"
   xmlns="http://www.w3.org/2000/svg"
   xmlns:sodipodi="http://sodipodi.sourceforge.net/DTD/sodipodi-0.dtd"
   xmlns:inkscape="http://www.inkscape.org/namespaces/inkscape"
   id="svg4190"
   version="1.1"
   inkscape:version="0.91 r13725"
   width="600"
   height="600"
   viewBox="0 0 600 600"
   sodipodi:docname="unicorn.svg"
   inkscape:export-filename="/Users/seiteta/Desktop/unicorn.png"
   inkscape:export-xdpi="145"
   inkscape:export-ydpi="145">
  <metadata
     id="metadata4196">
    <rdf:RDF>
      <cc:Work
         rdf:about="">
        <dc:format>image/svg+xml</dc:format>
        <dc:type
           rdf:resource="http://purl.org/dc/dcmitype/StillImage" />
        <dc:title />
      </cc:Work>
    </rdf:RDF>
  </metadata>
  <defs
     id="defs4194" />
  <sodipodi:namedview
     pagecolor="#ffffff"
     bordercolor="#666666"
     borderopacity="1"
     objecttolerance="10"
     gridtolerance="10"
     guidetolerance="10"
     inkscape:pageopacity="0"
     inkscape:pageshadow="2"
     inkscape:window-width="1280"
     inkscape:window-height="756"
     id="namedview4192"
     showgrid="false"
     inkscape:zoom="0.70710678"
     inkscape:cx="-197.13482"
     inkscape:cy="236.16911"
     inkscape:window-x="0"
     inkscape:window-y="0"
     inkscape:window-maximized="1"
     inkscape:current-layer="svg4190" />
  <path
     style="fill:#f9f9f9;fill-rule:evenodd;stroke:none;stroke-width:1px;stroke-linecap:butt;stroke-linejoin:miter;stroke-opacity:1"
     d="m 249.82797,268.00348 -28.45674,13.4289 c 0,0 -58.39174,112.12769 -53.58736,105.1059 4.80439,-7.02179 82.0441,-118.5348 82.0441,-118.5348 z"
     id="path4266"
     inkscape:connector-curvature="0"
     sodipodi:nodetypes="ccsc" />
  <path
     style="fill:#cccccc;fill-rule:evenodd;stroke:none;stroke-width:1px;stroke-linecap:butt;stroke-linejoin:miter;stroke-opacity:1"
     d="m 196.79496,388.42232 28.39452,18.30568 -52.41644,19.75982 -4.80438,-7.20657 z"
     id="path4216"
     inkscape:connector-curvature="0"
     sodipodi:nodetypes="ccccc" />
  <path
     style="fill:#4d4d4d;fill-rule:evenodd;stroke:none;stroke-width:1px;stroke-linecap:butt;stroke-linejoin:miter;stroke-opacity:1"
     d="m 254.26279,390.08537 17.73926,32.89156 -13.8588,19.40232 -33.26112,-31.59807 1.1087,-9.79355 z"
     id="path4220"
     inkscape:connector-curvature="0" />
  <path
     style="fill:#999999;fill-rule:evenodd;stroke:none;stroke-width:1px;stroke-linecap:butt;stroke-linejoin:miter;stroke-opacity:1"
     d="m 152.26202,401.91155 21.53337,21.70608 -9.69513,27.12516 z"
     id="path4200"
     inkscape:connector-curvature="0"
     sodipodi:nodetypes="cccc" />
  <path
     style="fill:#808080;fill-rule:evenodd;stroke:none;stroke-width:1px;stroke-linecap:butt;stroke-linejoin:miter;stroke-opacity:1"
     d="m 173.69696,423.71606 51.30773,-17.09856 -21.5575,47.03357 -39.359,-2.95654 z"
     id="path4202"
     inkscape:connector-curvature="0"
     sodipodi:nodetypes="ccccc" />
  <path
     style="fill:#999999;fill-rule:evenodd;stroke:none;stroke-width:1px;stroke-linecap:butt;stroke-linejoin:miter;stroke-opacity:1"
     d="m 202.72012,453.639 9.78148,16.27306 46.196,-27.7176 z"
     id="path4206"
     inkscape:connector-curvature="0"
     sodipodi:nodetypes="cccc" />
  <path
     style="fill:#666666;fill-rule:evenodd;stroke:none;stroke-width:1px;stroke-linecap:butt;stroke-linejoin:miter;stroke-opacity:1"
     d="m 224.88213,406.53115 33.26112,35.8481 -55.59585,11.44454 z"
     id="path4210"
     inkscape:connector-curvature="0"
     sodipodi:nodetypes="cccc" />
  <path
     style="fill:#cccccc;fill-rule:evenodd;stroke:none;stroke-width:1px;stroke-linecap:butt;stroke-linejoin:miter;stroke-opacity:1"
     d="m 167.78387,386.57448 -15.59614,15.5079 21.42288,21.79433 z"
     id="path4212"
     inkscape:connector-curvature="0"
     sodipodi:nodetypes="cccc" />
  <path
     style="fill:#e6e6e6;fill-rule:evenodd;stroke:none;stroke-width:1px;stroke-linecap:butt;stroke-linejoin:miter;stroke-opacity:1"
     d="m 167.78387,386.57448 29.01109,1.84784 -23.27072,35.52868 z"
     id="path4214"
     inkscape:connector-curvature="0"
     sodipodi:nodetypes="cccc" />
  <path
     style="fill:#999999;fill-rule:evenodd;stroke:none;stroke-width:1px;stroke-linecap:butt;stroke-linejoin:miter;stroke-opacity:1"
     d="m 271.27255,422.89057 c 1.84784,0 74.6431,-6.05953 74.6431,-6.05953 0,0 -84.07429,21.30302 -84.07429,20.56388 0,-0.73913 9.43119,-14.50435 9.43119,-14.50435 z"
     id="path4222"
     inkscape:connector-curvature="0"
     sodipodi:nodetypes="ccsc" />
  <path
     style="fill:#666666;fill-rule:evenodd;stroke:none;stroke-width:1px;stroke-linecap:butt;stroke-linejoin:miter;stroke-opacity:1"
     d="m 253.89322,390.27016 c 2.03262,0 102.18555,-30.11979 102.18555,-30.11979 l -84.65709,63.03736 z"
     id="path4224"
     inkscape:connector-curvature="0"
     sodipodi:nodetypes="cccc" />
  <path
     style="fill:#e84141;fill-opacity:1;fill-rule:evenodd;stroke:none;stroke-width:1px;stroke-linecap:butt;stroke-linejoin:miter;stroke-opacity:1"
     d="m 325.58941,421.86822 24.76106,99.04423 55.70634,43.36391 -56.44548,-132.52823 z"
     id="path4226"
     inkscape:connector-curvature="0"
     sodipodi:nodetypes="ccccc" />
  <path
     style="fill:#ed6767;fill-opacity:1;fill-rule:evenodd;stroke:none;stroke-width:1px;stroke-linecap:butt;stroke-linejoin:miter;stroke-opacity:1"
     d="m 349.24176,431.47699 46.89683,-7.62174 69.88666,107.77467 -59.87001,32.89155 z"
     id="path4228"
     inkscape:connector-curvature="0"
     sodipodi:nodetypes="ccccc" />
  <path
     style="fill:#e41b1b;fill-opacity:1;fill-rule:evenodd;stroke:none;stroke-width:1px;stroke-linecap:butt;stroke-linejoin:miter;stroke-opacity:1"
     d="m 395.95138,423.43767 86.70443,26.88729 -16.80327,81.08398 z"
     id="path4230"
     inkscape:connector-curvature="0"
     sodipodi:nodetypes="cccc" />
  <path
     style="fill:#bd1717;fill-opacity:1;fill-rule:evenodd;stroke:none;stroke-width:1px;stroke-linecap:butt;stroke-linejoin:miter;stroke-opacity:1"
     d="M 394.69863,422.97693 415.764,354.60685 482.70408,450.5961 Z"
     id="path4232"
     inkscape:connector-curvature="0"
     sodipodi:nodetypes="cccc" />
  <path
     style="fill:#e84141;fill-opacity:1;fill-rule:evenodd;stroke:none;stroke-width:1px;stroke-linecap:butt;stroke-linejoin:miter;stroke-opacity:1"
     d="m 416.82255,356.30421 55.11579,33.04203 c 0,0 12.19575,61.71785 10.71747,61.34829 -1.47827,-0.36957 -65.83326,-94.39032 -65.83326,-94.39032 z"
     id="path4234"
     inkscape:connector-curvature="0"
     sodipodi:nodetypes="ccsc" />
  <path
     style="fill:#808080;fill-rule:evenodd;stroke:none;stroke-width:1px;stroke-linecap:butt;stroke-linejoin:miter;stroke-opacity:1"
     d="m 354.55006,360.65912 c 0,0 -85.37021,62.457 -83.1528,62.457 2.21741,0 73.77926,-6.05228 73.77926,-6.05228 l 55.47836,-110.39996 z"
     id="path4236"
     inkscape:connector-curvature="0"
     sodipodi:nodetypes="csccc" />
  <path
     style="fill:#999999;fill-rule:evenodd;stroke:none;stroke-width:1px;stroke-linecap:butt;stroke-linejoin:miter;stroke-opacity:1"
     d="m 344.80695,417.43341 33.63069,-33.63069 22.91321,-78.34842 -55.06563,106.06602 z"
     id="path4238"
     inkscape:connector-curvature="0" />
  <path
     style="fill:#e84141;fill-opacity:1;fill-rule:evenodd;stroke:none;stroke-width:1px;stroke-linecap:butt;stroke-linejoin:miter;stroke-opacity:1"
     d="m 377.51129,384.82024 18.71362,40.37409 20.6478,-68.73964 -15.22658,-53.21591 z"
     id="path4240"
     inkscape:connector-curvature="0"
     sodipodi:nodetypes="ccccc" />
  <path
     style="fill:#f6b3b3;fill-opacity:1;fill-rule:evenodd;stroke:none;stroke-width:1px;stroke-linecap:butt;stroke-linejoin:miter;stroke-opacity:1"
     d="m 416.67586,356.25594 19.78395,-21.97534 35.3801,55.08977 z"
     id="path4242"
     inkscape:connector-curvature="0"
     sodipodi:nodetypes="cccc" />
  <path
     style="fill:#999999;fill-rule:evenodd;stroke:none;stroke-width:1px;stroke-linecap:butt;stroke-linejoin:miter;stroke-opacity:1"
     d="m 300.82836,275.88886 46.56556,-2.21741 7.38652,86.84364 -100.51765,30.30942 z"
     id="path4244"
     inkscape:connector-curvature="0"
     sodipodi:nodetypes="ccccc" />
  <path
     style="fill:#b3b3b3;fill-rule:evenodd;stroke:none;stroke-width:1px;stroke-linecap:butt;stroke-linejoin:miter;stroke-opacity:1"
     d="m 347.39392,273.67145 54.03412,32.5097 -46.73393,54.65548 z"
     id="path4246"
     inkscape:connector-curvature="0"
     sodipodi:nodetypes="cccc" />
  <path
     style="fill:#666666;fill-rule:evenodd;stroke:none;stroke-width:1px;stroke-linecap:butt;stroke-linejoin:miter;stroke-opacity:1"
     d="m 347.35076,273.76749 c 0,-1.84784 27.67443,-37.13917 27.67443,-37.13917 l 25.29843,71.13942 z"
     id="path4248"
     inkscape:connector-curvature="0"
     sodipodi:nodetypes="cccc" />
  <path
     style="fill:#999999;fill-rule:evenodd;stroke:none;stroke-width:1px;stroke-linecap:butt;stroke-linejoin:miter;stroke-opacity:1"
     d="m 374.37239,235.23638 22.91321,9.2392 15.15229,97.93552 z"
     id="path4250"
     inkscape:connector-curvature="0" />
  <path
     style="fill:#f18e8e;fill-opacity:1;fill-rule:evenodd;stroke:none;stroke-width:1px;stroke-linecap:butt;stroke-linejoin:miter;stroke-opacity:1"
     d="m 397.2856,244.47558 c 0.36957,2.95654 39.91335,90.91373 39.91335,90.91373 l -20.32624,21.01522 -5.91309,-17.31954 z"
     id="path4252"
     inkscape:connector-curvature="0"
     sodipodi:nodetypes="ccccc" />
  <path
     style="fill:#b3b3b3;fill-rule:evenodd;stroke:none;stroke-width:1px;stroke-linecap:butt;stroke-linejoin:miter;stroke-opacity:1"
     d="m 385.59862,183.26164 -13.07407,53.08344 24.80422,8.49522 z"
     id="path4254"
     inkscape:connector-curvature="0"
     sodipodi:nodetypes="cccc" />
  <path
     style="fill:#808080;fill-rule:evenodd;stroke:none;stroke-width:1px;stroke-linecap:butt;stroke-linejoin:miter;stroke-opacity:1"
     d="m 371.78541,116.60505 -32.70919,42.17876 c 0,0 47.12234,26.93046 46.75278,24.71305 -0.36957,-2.21741 -14.04359,-66.89181 -14.04359,-66.89181 z"
     id="path4256"
     inkscape:connector-curvature="0"
     sodipodi:nodetypes="ccsc" />
  <path
     style="fill:#b3b3b3;fill-rule:evenodd;stroke:none;stroke-width:1px;stroke-linecap:butt;stroke-linejoin:miter;stroke-opacity:1"
     d="m 339.26343,158.36623 -13.67402,33.36201 49.10938,45.64407 10.85182,-53.77942 z"
     id="path4258"
     inkscape:connector-curvature="0"
     sodipodi:nodetypes="ccccc" />
  <path
     style="fill:#ececec;fill-rule:evenodd;stroke:none;stroke-width:1px;stroke-linecap:butt;stroke-linejoin:miter;stroke-opacity:1"
     d="m 249.82797,268.4975 -82.11838,118.41035 29.34255,1.52654 z"
     id="path4260"
     inkscape:connector-curvature="0"
     sodipodi:nodetypes="cccc" />
  <path
     style="fill:#f9f9f9;fill-rule:evenodd;stroke:none;stroke-width:1px;stroke-linecap:butt;stroke-linejoin:miter;stroke-opacity:1"
     d="m 250.19754,267.3888 49.89168,8.13049 c 0,0 -103.84861,114.56608 -103.84861,112.71824 0,-1.84784 53.95693,-120.84873 53.95693,-120.84873 z"
     id="path4262"
     inkscape:connector-curvature="0" />
  <path
     style="fill:#cccccc;fill-rule:evenodd;stroke:none;stroke-width:1px;stroke-linecap:butt;stroke-linejoin:miter;stroke-opacity:1"
     d="m 300.82836,275.51929 -103.9972,112.96525 57.55608,2.68162 z"
     id="path4264"
     inkscape:connector-curvature="0"
     sodipodi:nodetypes="cccc" />
  <path
     style="fill:#ffffff;fill-rule:evenodd;stroke:none;stroke-width:1px;stroke-linecap:butt;stroke-linejoin:miter;stroke-opacity:1"
     d="m 219.15383,239.30163 c 0,2.95654 1.84784,42.13075 1.84784,42.13075 l 28.45673,-13.30445 51.36996,8.1305 43.23945,-43.23946 -19.21753,-42.86989 -44.34816,6.28266 -15.15229,-1.47827 z"
     id="path4268"
     inkscape:connector-curvature="0" />
  <path
     style="fill:#b3b3b3;fill-rule:evenodd;stroke:none;stroke-width:1px;stroke-linecap:butt;stroke-linejoin:miter;stroke-opacity:1"
     d="m 254.63236,135.45302 1.84784,55.06563 14.41315,-23.28278 z"
     id="path4270"
     inkscape:connector-curvature="0" />
  <path
     style="fill:#e6e6e6;fill-rule:evenodd;stroke:none;stroke-width:1px;stroke-linecap:butt;stroke-linejoin:miter;stroke-opacity:1"
     d="m 255.00192,135.45302 44.74635,48.95564 -29.59406,-17.54236 z"
     id="path4272"
     inkscape:connector-curvature="0"
     sodipodi:nodetypes="cccc" />
  <path
     style="fill:#e6e6e6;fill-rule:evenodd;stroke:none;stroke-width:1px;stroke-linecap:butt;stroke-linejoin:miter;stroke-opacity:1"
     d="m 270.75416,167.23102 -6.51304,27.35288 35.99215,-10.16555 z"
     id="path4274"
     inkscape:connector-curvature="0"
     sodipodi:nodetypes="cccc" />
  <path
     style="fill:none;fill-rule:evenodd;stroke:none;stroke-width:1px;stroke-linecap:butt;stroke-linejoin:miter;stroke-opacity:1"
     d="m 317.45892,169.82284 -18.10884,14.04359 -34.73939,10.71747 17.3697,3.32611 44.34816,-5.17395 5.17395,-15.15229 z"
     id="path4276"
     inkscape:connector-curvature="0" />
  <path
     style="fill:#0e3672;fill-rule:evenodd;stroke:none;stroke-width:1px;stroke-linecap:butt;stroke-linejoin:miter;stroke-opacity:1;fill-opacity:1"
     d="M 111.97911,40.104473 258.6976,249.27996 288.26304,231.91027 Z"
     id="path4278"
     inkscape:connector-curvature="0" />
  <path
     style="fill:#ececec;fill-rule:evenodd;stroke:none;stroke-width:1px;stroke-linecap:butt;stroke-linejoin:miter;stroke-opacity:1"
     d="m 325.87108,192.07317 17.77004,41.2892 31.32889,3.81212 z"
     id="path4282"
     inkscape:connector-curvature="0"
     sodipodi:nodetypes="cccc" />
  <path
     style="fill:#666666;fill-rule:evenodd;stroke:none;stroke-width:1px;stroke-linecap:butt;stroke-linejoin:miter;stroke-opacity:1"
     d="m 343.11847,233.10104 4.18118,41.81185 27.73448,-37.72134 z"
     id="path4284"
     inkscape:connector-curvature="0"
     sodipodi:nodetypes="cccc" />
  <path
     style="fill:#4d4d4d;fill-rule:evenodd;stroke:none;stroke-width:1px;stroke-linecap:butt;stroke-linejoin:miter;stroke-opacity:1"
     d="m 343.11847,232.5784 c 0,0 -45.20906,44.94773 -43.11847,43.90244 2.09059,-1.0453 47.29965,-2.35192 47.29965,-2.35192 z"
     id="path4286"
     inkscape:connector-curvature="0" />
  <path
     style="fill:#cccccc;fill-rule:evenodd;stroke:none;stroke-width:1px;stroke-linecap:butt;stroke-linejoin:miter;stroke-opacity:1"
     d="m 270.62664,167.1082 -14.52908,22.87438 8.88502,5.4878 z"
     id="path4288"
     inkscape:connector-curvature="0"
     sodipodi:nodetypes="cccc" />
  <path
     style="fill:#f18e8e;fill-opacity:1;fill-rule:evenodd;stroke:none;stroke-width:1px;stroke-linecap:butt;stroke-linejoin:miter;stroke-opacity:1"
     d="m 377.61324,384.66899 -51.90505,37.20644 23.68205,10.09321 46.98446,-7.8056 z"
     id="path4290"
     inkscape:connector-curvature="0"
     sodipodi:nodetypes="ccccc" />
  <path
     style="fill:#8eb6f1;fill-rule:evenodd;stroke:none;stroke-width:1px;stroke-linecap:butt;stroke-linejoin:miter;stroke-opacity:1;fill-opacity:1"
     d="m 111.98692,40.119243 175.16742,175.899597 1.47827,15.89143 -6.65222,-1.10871 z"
     id="path4280"
     inkscape:connector-curvature="0"
     sodipodi:nodetypes="ccccc" />
  <path
     style="fill:#e6e6e6;fill-rule:evenodd;stroke:none;stroke-width:1px;stroke-linecap:butt;stroke-linejoin:miter;stroke-opacity:1"
     d="m 196.61018,388.23753 58.03424,2.24154 -29.70385,16.62039 z"
     id="path4218"
     inkscape:connector-curvature="0"
     sodipodi:nodetypes="cccc" />
  <path
     style="fill:#cccccc;fill-rule:evenodd;stroke:none;stroke-width:1px;stroke-linecap:butt;stroke-linejoin:miter;stroke-opacity:1"
     d="m 164.12439,450.5961 26.5727,18.20726 21.80451,0.92392 -14.19217,-23.28279 -32.23688,-0.91185 z"
     id="path4204"
     inkscape:connector-curvature="0"
     sodipodi:nodetypes="cccccc" />
</svg>
